<svg id="_0060_mind_map" data-name="0060_mind_map" xmlns="http://www.w3.org/2000/svg" viewBox="0 0 500 500" data-imageid="mind-map-66" imageName="Mind Map" class="illustrations_image" style="width: 147px;"><defs><style>.cls-1_mind-map-66{fill:#fff;}.cls-2_mind-map-66{fill:#093f68;}.cls-3_mind-map-66{fill:#ffbc0e;}.cls-4_mind-map-66{fill:#f56132;}.cls-5_mind-map-66{fill:#68e1fd;}.cls-6_mind-map-66{fill:#70cc40;}.cls-7_mind-map-66{fill:#dfeaef;}</style></defs><g id="mind-map_mind-map-66"><polygon class="cls-1_mind-map-66" points="344.67 384.92 104.15 384.92 104.15 168.39 157.56 115 344.67 115 344.67 384.92"/><path class="cls-2_mind-map-66" d="M344.67,386.75H104.15a1.83,1.83,0,0,1-1.84-1.83V168.39a1.81,1.81,0,0,1,.54-1.3l53.41-53.39a1.81,1.81,0,0,1,1.3-.54H344.67a1.84,1.84,0,0,1,1.84,1.84V384.92A1.84,1.84,0,0,1,344.67,386.75ZM106,383.08H342.83V116.84H158.32L106,169.15Z"/><path class="cls-2_mind-map-66" d="M200.64,344.58c-10.73,0-11-.22-11.44-.7a1.83,1.83,0,0,1-.54-1.31,1.89,1.89,0,0,1,2.28-1.78c2.24.17,22.35.06,35.58-.06h0a1.84,1.84,0,0,1,0,3.68C214.26,344.52,206.09,344.58,200.64,344.58Zm-8.31-2h0Z"/><path class="cls-2_mind-map-66" d="M159.94,217.26a1.84,1.84,0,0,1-1.84-1.83V177.6a1.84,1.84,0,0,1,1.84-1.84h31.49a1.84,1.84,0,1,1,0,3.68H161.78v36A1.83,1.83,0,0,1,159.94,217.26Z"/><path class="cls-2_mind-map-66" d="M296.74,254.06a1.84,1.84,0,0,1-1.84-1.84V179.44H261.63a1.84,1.84,0,1,1,0-3.68h35.11a1.83,1.83,0,0,1,1.83,1.84v74.62A1.83,1.83,0,0,1,296.74,254.06Z"/><path class="cls-2_mind-map-66" d="M261.63,333.43a1.84,1.84,0,0,1-1.79-1.43L228.89,195l-34.4,91.22a1.84,1.84,0,0,1-3.44-1.3l36.56-96.95a1.84,1.84,0,0,1,3.52.24l32.3,143a1.85,1.85,0,0,1-1.39,2.2A1.9,1.9,0,0,1,261.63,333.43Z"/><path class="cls-2_mind-map-66" d="M156.33,299.58H141a1.84,1.84,0,0,1-1.84-1.84V239.41a1.84,1.84,0,0,1,3.68,0V295.9h13.45a1.84,1.84,0,1,1,0,3.68Z"/><path class="cls-2_mind-map-66" d="M313.17,344.56H296.74a1.84,1.84,0,0,1,0-3.68h14.59V276.17a1.84,1.84,0,1,1,3.68,0v66.55A1.84,1.84,0,0,1,313.17,344.56Z"/><rect class="cls-3_mind-map-66" x="191.43" y="166.62" width="70.2" height="21.96" rx="2.55"/><path class="cls-2_mind-map-66" d="M257,190.41H196.11a6.53,6.53,0,0,1-6.52-6.52V171.3a6.53,6.53,0,0,1,6.52-6.52H257a6.53,6.53,0,0,1,6.52,6.52v12.59A6.52,6.52,0,0,1,257,190.41Zm-60.84-21.95a2.84,2.84,0,0,0-2.84,2.84v12.59a2.85,2.85,0,0,0,2.84,2.85H257a2.85,2.85,0,0,0,2.84-2.85V171.3a2.84,2.84,0,0,0-2.84-2.84Z"/><rect class="cls-4_mind-map-66" x="124.84" y="217.45" width="70.2" height="21.96" rx="2.55"/><path class="cls-2_mind-map-66" d="M190.36,241.25H129.52a6.53,6.53,0,0,1-6.52-6.52V222.14a6.54,6.54,0,0,1,6.52-6.53h60.84a6.53,6.53,0,0,1,6.52,6.53v12.59A6.53,6.53,0,0,1,190.36,241.25Zm-60.84-22a2.85,2.85,0,0,0-2.84,2.85v12.59a2.85,2.85,0,0,0,2.84,2.84h60.84a2.84,2.84,0,0,0,2.84-2.84V222.14a2.85,2.85,0,0,0-2.84-2.85Z"/><rect class="cls-3_mind-map-66" x="258.62" y="252.22" width="70.2" height="21.96" rx="2.55"/><path class="cls-2_mind-map-66" d="M324.14,276H263.3a6.53,6.53,0,0,1-6.52-6.53V256.9a6.53,6.53,0,0,1,6.52-6.52h60.84a6.53,6.53,0,0,1,6.52,6.52v12.59A6.54,6.54,0,0,1,324.14,276Zm-60.84-22a2.85,2.85,0,0,0-2.85,2.84v12.59a2.86,2.86,0,0,0,2.85,2.85h60.84a2.85,2.85,0,0,0,2.84-2.85V256.9a2.85,2.85,0,0,0-2.84-2.84Z"/><rect class="cls-3_mind-map-66" x="226.53" y="331.59" width="70.2" height="21.96" rx="2.55"/><path class="cls-2_mind-map-66" d="M292.05,355.39H231.21a6.53,6.53,0,0,1-6.52-6.52V336.28a6.54,6.54,0,0,1,6.52-6.53h60.84a6.53,6.53,0,0,1,6.52,6.53v12.59A6.53,6.53,0,0,1,292.05,355.39Zm-60.84-22a2.85,2.85,0,0,0-2.84,2.85v12.59a2.85,2.85,0,0,0,2.84,2.84h60.84a2.85,2.85,0,0,0,2.85-2.84V336.28a2.86,2.86,0,0,0-2.85-2.85Z"/><rect class="cls-5_mind-map-66 targetColor" x="133.71" y="334.92" width="56.78" height="17.76" rx="2.06" style="fill: rgb(255, 38, 38);"/><path class="cls-2_mind-map-66" d="M186.71,354.52H137.5a5.63,5.63,0,0,1-5.62-5.63V338.71a5.63,5.63,0,0,1,5.62-5.63h49.21a5.63,5.63,0,0,1,5.62,5.63v10.18A5.63,5.63,0,0,1,186.71,354.52ZM137.5,336.76a2,2,0,0,0-1.95,1.95v10.18a2,2,0,0,0,1.95,1.95h49.21a2,2,0,0,0,1.95-1.95V338.71a2,2,0,0,0-1.95-1.95Z"/><rect class="cls-6_mind-map-66" x="156.33" y="286.76" width="70.2" height="21.96" rx="2.55"/><path class="cls-2_mind-map-66" d="M221.85,310.56H161a6.53,6.53,0,0,1-6.52-6.52v-12.6a6.53,6.53,0,0,1,6.52-6.52h60.84a6.53,6.53,0,0,1,6.52,6.52V304A6.53,6.53,0,0,1,221.85,310.56ZM161,288.6a2.84,2.84,0,0,0-2.84,2.84V304a2.84,2.84,0,0,0,2.84,2.84h60.84a2.84,2.84,0,0,0,2.84-2.84v-12.6a2.84,2.84,0,0,0-2.84-2.84Z"/><polygon class="cls-5_mind-map-66 targetColor" points="104.15 168.39 157.33 168.39 157.33 115 104.15 168.39" style="fill: rgb(255, 38, 38);"/><path class="cls-2_mind-map-66" d="M157.33,170.23H104.15a1.84,1.84,0,0,1-1.3-3.14L156,113.7a1.84,1.84,0,0,1,3.14,1.3v53.39A1.84,1.84,0,0,1,157.33,170.23Zm-48.76-3.68h46.92v-47.1Z"/><path class="cls-7_mind-map-66" d="M325.07,131.73H268.4a1.84,1.84,0,1,1,0-3.68h56.67a1.84,1.84,0,0,1,0,3.68Z"/><path class="cls-7_mind-map-66" d="M325.07,146.6H279.18a1.84,1.84,0,0,1,0-3.68h45.89a1.84,1.84,0,1,1,0,3.68Z"/></g><g id="pencil_mind-map-66"><rect class="cls-5_mind-map-66 targetColor" x="348.8" y="194.19" width="26.75" height="125.12" transform="translate(107.23 -106.7) rotate(19.62)" style="fill: rgb(255, 38, 38);"/><path class="cls-2_mind-map-66" d="M353.77,322a2,2,0,0,1-.62-.1l-25.2-9a1.82,1.82,0,0,1-1-.94,1.86,1.86,0,0,1-.08-1.41l42-117.85a1.85,1.85,0,0,1,2.36-1.12l25.2,9a1.87,1.87,0,0,1,1,1,1.82,1.82,0,0,1,.07,1.41l-42,117.85A1.83,1.83,0,0,1,353.77,322Zm-22.85-11.93,21.74,7.74,40.77-114.39-21.74-7.74Z"/><path class="cls-2_mind-map-66" d="M377.87,185.84h14.76a6,6,0,0,1,6,6v6.34a0,0,0,0,1,0,0H371.87a0,0,0,0,1,0,0v-6.34a6,6,0,0,1,6-6Z" transform="translate(86.83 -118.2) rotate(19.62)"/><path class="cls-2_mind-map-66" d="M395.78,204.15a1.93,1.93,0,0,1-.62-.11l-25.2-9a1.84,1.84,0,0,1-1-.95,1.79,1.79,0,0,1-.07-1.4l.43-1.23a12.87,12.87,0,0,1,16.45-7.8l4.42,1.57h0A12.89,12.89,0,0,1,398,201.7l-.44,1.23A1.84,1.84,0,0,1,395.78,204.15Zm-22.84-11.93L394.65,200a9.19,9.19,0,0,0-5.74-11.23l-4.42-1.58a9.21,9.21,0,0,0-11.55,5.08Z"/><polygon class="cls-1_mind-map-66" points="353.77 320.16 339.2 336.75 329.87 347.36 329.37 333.25 328.58 311.18 353.77 320.16"/><path class="cls-2_mind-map-66" d="M329.87,349.2a1.66,1.66,0,0,1-.62-.11,1.82,1.82,0,0,1-1.22-1.66l-1.29-36.19a1.82,1.82,0,0,1,.75-1.55,1.85,1.85,0,0,1,1.7-.25l25.2,9a1.84,1.84,0,0,1,.76,2.95l-23.9,27.21A1.85,1.85,0,0,1,329.87,349.2Zm.64-35.38,1,28.85L350.6,321Z"/><polygon class="cls-5_mind-map-66 targetColor" points="339.2 336.75 329.87 347.36 329.37 333.25 339.2 336.75" style="fill: rgb(255, 38, 38);"/><path class="cls-2_mind-map-66" d="M329.87,349.2a1.66,1.66,0,0,1-.62-.11,1.82,1.82,0,0,1-1.22-1.66l-.5-14.12a1.85,1.85,0,0,1,.75-1.55,1.89,1.89,0,0,1,1.71-.25l9.83,3.51a1.83,1.83,0,0,1,1.16,1.27,1.87,1.87,0,0,1-.4,1.68l-9.33,10.61A1.85,1.85,0,0,1,329.87,349.2Zm1.43-13.31.24,6.78,4.49-5.1Z"/></g></svg>